<svg id="visual" viewBox="0 0 900 600" width="900" height="600" xmlns="http://www.w3.org/2000/svg" xmlns:xlink="http://www.w3.org/1999/xlink" version="1.1"><path d="M0 506L25 511C50 516 100 526 150 532.3C200 538.7 250 541.3 300 538.3C350 535.3 400 526.7 450 521.2C500 515.7 550 513.3 600 520.5C650 527.7 700 544.3 750 549.7C800 555 850 549 875 546L900 543L900 601L875 601C850 601 800 601 750 601C700 601 650 601 600 601C550 601 500 601 450 601C400 601 350 601 300 601C250 601 200 601 150 601C100 601 50 601 25 601L0 601Z" fill="#FF66FF" stroke-linecap="round" stroke-linejoin="miter"></path></svg>