<svg id="visual" viewBox="0 0 900 600" width="900" height="600" xmlns="http://www.w3.org/2000/svg" xmlns:xlink="http://www.w3.org/1999/xlink" version="1.1"><path d="M0 367L25 379.3C50 391.7 100 416.3 150 432C200 447.7 250 454.3 300 446.8C350 439.3 400 417.7 450 403.8C500 390 550 384 600 402.2C650 420.3 700 462.7 750 476.2C800 489.7 850 474.3 875 466.7L900 459L900 601L875 601C850 601 800 601 750 601C700 601 650 601 600 601C550 601 500 601 450 601C400 601 350 601 300 601C250 601 200 601 150 601C100 601 50 601 25 601L0 601Z" fill="#FF66FF" stroke-linecap="round" stroke-linejoin="miter"></path></svg>