<svg id="visual" viewBox="0 0 900 600" width="900" height="600" xmlns="http://www.w3.org/2000/svg" xmlns:xlink="http://www.w3.org/1999/xlink" version="1.1"><path d="M0 231L25 218.7C50 206.3 100 181.7 150 166C200 150.3 250 143.7 300 151.2C350 158.7 400 180.3 450 194.2C500 208 550 214 600 195.8C650 177.7 700 135.3 750 121.8C800 108.3 850 123.7 875 131.3L900 139L900 0L875 0C850 0 800 0 750 0C700 0 650 0 600 0C550 0 500 0 450 0C400 0 350 0 300 0C250 0 200 0 150 0C100 0 50 0 25 0L0 0Z" fill="#FF66FF" stroke-linecap="round" stroke-linejoin="miter"></path></svg>